<?xml version="1.0" encoding="utf-8"?>
<!-- Generator: Adobe Illustrator 24.3.0, SVG Export Plug-In . SVG Version: 6.00 Build 0)  -->
<svg version="1.1" id="Layer_1" xmlns="http://www.w3.org/2000/svg" xmlns:xlink="http://www.w3.org/1999/xlink" x="0px" y="0px"
	 viewBox="0 0 1920 500" style="enable-background:new 0 0 1920 500;" xml:space="preserve">
<style type="text/css">
	.st0{fill:#FFFFFF;}
</style>
<g>
	<circle cx="1089.5" cy="136.5" r="94"/>
	<path d="M1089.5,43c51.56,0,93.5,41.94,93.5,93.5s-41.94,93.5-93.5,93.5S996,188.06,996,136.5S1037.94,43,1089.5,43 M1089.5,42
		c-52.19,0-94.5,42.31-94.5,94.5s42.31,94.5,94.5,94.5s94.5-42.31,94.5-94.5S1141.69,42,1089.5,42L1089.5,42z"/>
</g>
<g>
	<circle class="st0" cx="1089.5" cy="361.5" r="94"/>
	<path d="M1089.5,268c51.56,0,93.5,41.94,93.5,93.5s-41.94,93.5-93.5,93.5S996,413.06,996,361.5S1037.94,268,1089.5,268 M1089.5,267
		c-52.19,0-94.5,42.31-94.5,94.5s42.31,94.5,94.5,94.5s94.5-42.31,94.5-94.5S1141.69,267,1089.5,267L1089.5,267z"/>
</g>
<g>
	<circle cx="140.5" cy="136.5" r="94"/>
	<path d="M140.5,43c51.56,0,93.5,41.94,93.5,93.5S192.06,230,140.5,230S47,188.06,47,136.5S88.94,43,140.5,43 M140.5,42
		C88.31,42,46,84.31,46,136.5S88.31,231,140.5,231s94.5-42.31,94.5-94.5S192.69,42,140.5,42L140.5,42z"/>
</g>
<g>
	<circle class="st0" cx="140.5" cy="361.5" r="94"/>
	<path d="M140.5,268c51.56,0,93.5,41.94,93.5,93.5S192.06,455,140.5,455S47,413.06,47,361.5S88.94,268,140.5,268 M140.5,267
		C88.31,267,46,309.31,46,361.5S88.31,456,140.5,456s94.5-42.31,94.5-94.5S192.69,267,140.5,267L140.5,267z"/>
</g>
<g>
	<circle class="st0" cx="1778.5" cy="136.5" r="94"/>
	<path d="M1778.5,43c51.56,0,93.5,41.94,93.5,93.5s-41.94,93.5-93.5,93.5s-93.5-41.94-93.5-93.5S1726.94,43,1778.5,43 M1778.5,42
		c-52.19,0-94.5,42.31-94.5,94.5s42.31,94.5,94.5,94.5s94.5-42.31,94.5-94.5S1830.69,42,1778.5,42L1778.5,42z"/>
</g>
<g>
	<circle cx="1778.5" cy="361.5" r="94"/>
	<path d="M1778.5,268c51.56,0,93.5,41.94,93.5,93.5s-41.94,93.5-93.5,93.5s-93.5-41.94-93.5-93.5S1726.94,268,1778.5,268
		 M1778.5,267c-52.19,0-94.5,42.31-94.5,94.5s42.31,94.5,94.5,94.5s94.5-42.31,94.5-94.5S1830.69,267,1778.5,267L1778.5,267z"/>
</g>
<g>
	<circle class="st0" cx="851.5" cy="136.5" r="94"/>
	<path d="M851.5,43c51.56,0,93.5,41.94,93.5,93.5S903.06,230,851.5,230S758,188.06,758,136.5S799.94,43,851.5,43 M851.5,42
		c-52.19,0-94.5,42.31-94.5,94.5s42.31,94.5,94.5,94.5s94.5-42.31,94.5-94.5S903.69,42,851.5,42L851.5,42z"/>
</g>
<g>
	<circle cx="851.5" cy="361.5" r="94"/>
	<path d="M851.5,268c51.56,0,93.5,41.94,93.5,93.5S903.06,455,851.5,455S758,413.06,758,361.5S799.94,268,851.5,268 M851.5,267
		c-52.19,0-94.5,42.31-94.5,94.5s42.31,94.5,94.5,94.5s94.5-42.31,94.5-94.5S903.69,267,851.5,267L851.5,267z"/>
</g>
</svg>
