<?xml version="1.0" encoding="utf-8"?>
<!-- Generator: Adobe Illustrator 24.3.0, SVG Export Plug-In . SVG Version: 6.00 Build 0)  -->
<svg version="1.1" id="Layer_1" xmlns="http://www.w3.org/2000/svg" xmlns:xlink="http://www.w3.org/1999/xlink" x="0px" y="0px"
	 viewBox="0 0 1920 500" style="enable-background:new 0 0 1920 500;" xml:space="preserve">
<style type="text/css">
	.st0{fill:#FFFFFF;}
</style>
<g>
	<polygon points="199.2,226.59 139.67,194.81 79.75,225.82 91.58,159.39 43.56,111.98 110.4,102.71 140.65,42.39 170.13,103.09 
		236.84,113.22 188.22,160.01 	"/>
</g>
<g>
	<polygon points="1839.2,445.59 1779.67,413.81 1719.75,444.82 1731.58,378.39 1683.56,330.98 1750.4,321.71 1780.65,261.39 
		1810.13,322.09 1876.84,332.22 1828.22,379.01 	"/>
</g>
<g>
	<polygon class="st0" points="137.68,414.24 78.42,444.91 90.12,379.22 42.63,332.34 108.73,323.16 138.64,263.52 167.79,323.54 
		233.76,333.56 185.68,379.83 196.54,445.67 	"/>
	<path d="M138.64,264.65l28.59,58.88l0.23,0.47l0.52,0.08l64.71,9.83l-47.16,45.39l-0.38,0.36l0.09,0.52l10.65,64.58l-57.74-30.83
		l-0.46-0.25l-0.47,0.24L79.09,444l11.48-64.44l0.09-0.52l-0.37-0.37l-46.58-45.99l64.83-9l0.52-0.07l0.24-0.47L138.64,264.65
		 M138.65,262.39l-30.25,60.32l-66.84,9.28l48.02,47.41l-11.83,66.43l59.93-31.02l59.53,31.78l-10.98-66.58l48.62-46.79
		l-66.71-10.13L138.65,262.39L138.65,262.39z"/>
</g>
<g>
	<polygon points="1151.2,228.59 1091.67,196.81 1031.75,227.82 1043.58,161.39 995.56,113.98 1062.4,104.71 1092.65,44.39 
		1122.13,105.09 1188.84,115.22 1140.22,162.01 	"/>
</g>
<g>
	<polygon class="st0" points="1089.68,416.24 1030.42,446.91 1042.12,381.22 994.63,334.34 1060.73,325.16 1090.64,265.52 
		1119.79,325.54 1185.76,335.56 1137.68,381.83 1148.54,447.67 	"/>
	<path d="M1090.64,266.65l28.59,58.88l0.23,0.47l0.52,0.08l64.71,9.83l-47.16,45.39l-0.38,0.36l0.09,0.52l10.65,64.58l-57.74-30.83
		l-0.46-0.25l-0.47,0.24L1031.09,446l11.48-64.44l0.09-0.52l-0.37-0.37l-46.58-45.99l64.83-9l0.52-0.07l0.24-0.47L1090.64,266.65
		 M1090.65,264.39l-30.25,60.32l-66.84,9.28l48.02,47.41l-11.83,66.43l59.93-31.02l59.53,31.78l-10.98-66.58l48.62-46.79
		l-66.71-10.13L1090.65,264.39L1090.65,264.39z"/>
</g>
<g>
	<polygon class="st0" points="1779.68,194.24 1720.42,224.91 1732.12,159.22 1684.63,112.34 1750.73,103.16 1780.64,43.52 
		1809.79,103.54 1875.76,113.56 1827.68,159.83 1838.54,225.67 	"/>
	<path d="M1780.64,44.65l28.59,58.88l0.23,0.47l0.52,0.08l64.71,9.83l-47.16,45.39l-0.38,0.36l0.09,0.52l10.65,64.58l-57.74-30.83
		l-0.46-0.25l-0.47,0.24L1721.09,224l11.48-64.44l0.09-0.52l-0.37-0.37l-46.58-45.99l64.83-9l0.52-0.07l0.24-0.47L1780.64,44.65
		 M1780.65,42.39l-30.25,60.32l-66.84,9.28l48.02,47.41l-11.83,66.43l59.93-31.02l59.53,31.78l-10.98-66.58l48.62-46.79
		l-66.71-10.13L1780.65,42.39L1780.65,42.39z"/>
</g>
<g>
	<polygon points="910.2,446.59 850.67,414.81 790.75,445.82 802.58,379.39 754.56,331.98 821.4,322.71 851.65,262.39 881.13,323.09 
		947.84,333.22 899.22,380.01 	"/>
</g>
<g>
	<polygon class="st0" points="850.68,195.24 791.42,225.91 803.12,160.22 755.63,113.34 821.73,104.16 851.64,44.52 880.79,104.54 
		946.76,114.56 898.68,160.83 909.54,226.67 	"/>
	<path d="M851.64,45.65l28.59,58.88l0.23,0.47l0.52,0.08l64.71,9.83l-47.16,45.39l-0.38,0.36l0.09,0.52l10.65,64.58l-57.74-30.83
		l-0.46-0.25l-0.47,0.24L792.09,225l11.48-64.44l0.09-0.52l-0.37-0.37l-46.58-45.99l64.83-9l0.52-0.07l0.24-0.47L851.64,45.65
		 M851.65,43.39l-30.25,60.32l-66.84,9.28l48.02,47.41l-11.83,66.43l59.93-31.02l59.53,31.78l-10.98-66.58l48.62-46.79l-66.71-10.13
		L851.65,43.39L851.65,43.39z"/>
</g>
</svg>
